<svg width="37" height="36" viewBox="0 0 37 36" fill="none" xmlns="http://www.w3.org/2000/svg">
<path d="M34.8058 26.2448V31.1122C34.8076 31.5641 34.715 32.0113 34.534 32.4253C34.353 32.8394 34.0875 33.211 33.7545 33.5165C33.4215 33.822 33.0285 34.0545 32.6004 34.1993C32.1724 34.3441 31.7188 34.3978 31.2688 34.3571C26.2761 33.8147 21.4804 32.1086 17.2668 29.3762C13.3467 26.8851 10.023 23.5615 7.532 19.6413C4.78999 15.4086 3.08358 10.5896 2.55101 5.5745C2.51047 5.12583 2.56379 4.67364 2.70758 4.24671C2.85137 3.81978 3.08249 3.42746 3.3862 3.09475C3.68992 2.76203 4.05959 2.4962 4.47168 2.31418C4.88376 2.13216 5.32924 2.03794 5.77973 2.03751H10.6471C11.4345 2.02976 12.1979 2.30859 12.7949 2.82203C13.3919 3.33547 13.7819 4.04848 13.8921 4.82816C14.0975 6.38584 14.4785 7.91528 15.0278 9.38731C15.2461 9.96803 15.2934 10.5992 15.164 11.2059C15.0346 11.8127 14.7339 12.3696 14.2977 12.8107L12.2372 14.8713C14.5468 18.9332 17.9101 22.2964 21.972 24.6061L24.0325 22.5456C24.4737 22.1093 25.0306 21.8087 25.6374 21.6793C26.2441 21.5499 26.8752 21.5971 27.456 21.8154C28.928 22.3647 30.4574 22.7457 32.0151 22.9512C32.8032 23.0624 33.523 23.4593 34.0376 24.0666C34.5521 24.6739 34.8255 25.4491 34.8058 26.2448Z" stroke="#040404" stroke-width="3.22689" stroke-linecap="round" stroke-linejoin="round"/>
</svg>
