<svg width="17" height="15" viewBox="0 0 17 15" fill="none" xmlns="http://www.w3.org/2000/svg">
<path d="M9.80642 7.15382L11.1388 6.07382C11.3628 5.89804 11.663 5.80067 11.9746 5.80268C12.2863 5.8047 12.5845 5.90594 12.805 6.0846C13.0255 6.26326 13.1507 6.50505 13.1537 6.75788C13.1566 7.01072 13.037 7.25437 12.8206 7.43636L9.45817 10.1643C9.34805 10.2542 9.21711 10.3255 9.0729 10.3741C8.92869 10.4228 8.77404 10.4479 8.61785 10.4479C8.46166 10.4479 8.30702 10.4228 8.1628 10.3741C8.01859 10.3255 7.88766 10.2542 7.77753 10.1643L4.41506 7.43636C4.30471 7.3467 4.2172 7.24029 4.15754 7.1232C4.09788 7.00611 4.06723 6.88063 4.06734 6.75393C4.06745 6.62722 4.09832 6.50178 4.15819 6.38476C4.21805 6.26773 4.30574 6.16142 4.41625 6.07189C4.52676 5.98236 4.65792 5.91137 4.80225 5.86297C4.94657 5.81456 5.10124 5.7897 5.25741 5.78979C5.41358 5.78987 5.56821 5.81492 5.71245 5.86349C5.85669 5.91206 5.98773 5.9832 6.09808 6.07286L7.42928 7.15382V1.71429C7.42928 1.45854 7.5545 1.21327 7.7774 1.03243C8.0003 0.851594 8.30262 0.75 8.61785 0.75C8.93308 0.75 9.2354 0.851594 9.4583 1.03243C9.6812 1.21327 9.80642 1.45854 9.80642 1.71429V7.15382ZM1.48642 12.3214H15.7493C16.0645 12.3214 16.3668 12.423 16.5897 12.6039C16.8126 12.7847 16.9379 13.03 16.9379 13.2857C16.9379 13.5415 16.8126 13.7867 16.5897 13.9676C16.3668 14.1484 16.0645 14.25 15.7493 14.25H1.48642C1.17119 14.25 0.868876 14.1484 0.645976 13.9676C0.423076 13.7867 0.297852 13.5415 0.297852 13.2857C0.297852 13.03 0.423076 12.7847 0.645976 12.6039C0.868876 12.423 1.17119 12.3214 1.48642 12.3214Z" fill="white"/>
</svg>
