<svg width="24" height="24" viewBox="0 0 24 24" fill="none" xmlns="http://www.w3.org/2000/svg">
<path fill-rule="evenodd" clip-rule="evenodd" d="M22.9287 12.2615C22.9287 11.446 22.8555 10.6619 22.7196 9.90918H11.8887V14.3576H18.0778C17.8112 15.7951 17.0009 17.013 15.783 17.8285V20.714H19.4996C21.6741 18.7119 22.9287 15.7637 22.9287 12.2615Z" fill="#4285F4"/>
<path fill-rule="evenodd" clip-rule="evenodd" d="M11.8881 23.5001C14.9931 23.5001 17.5963 22.4703 19.4991 20.7139L15.7825 17.8285C14.7527 18.5185 13.4354 18.9262 11.8881 18.9262C8.89292 18.9262 6.35769 16.9032 5.45337 14.1851H1.61133V17.1646C3.5036 20.923 7.39269 23.5001 11.8881 23.5001Z" fill="#34A853"/>
<path fill-rule="evenodd" clip-rule="evenodd" d="M5.4539 14.185C5.2239 13.495 5.09322 12.7579 5.09322 12C5.09322 11.242 5.2239 10.505 5.4539 9.81499V6.83545H1.61185C0.83299 8.38795 0.388672 10.1443 0.388672 12C0.388672 13.8557 0.83299 15.612 1.61185 17.1645L5.4539 14.185Z" fill="#FBBC05"/>
<path fill-rule="evenodd" clip-rule="evenodd" d="M11.8881 5.07386C13.5766 5.07386 15.0925 5.65409 16.2843 6.79364L19.5827 3.49523C17.5911 1.63955 14.9879 0.5 11.8881 0.5C7.39269 0.5 3.5036 3.07705 1.61133 6.83545L5.45337 9.815C6.35769 7.09682 8.89292 5.07386 11.8881 5.07386Z" fill="#EA4335"/>
</svg>
