<svg width="21" height="20" viewBox="0 0 21 20" fill="none" xmlns="http://www.w3.org/2000/svg">
<path d="M18.9123 0H1.86506C1.4735 0 1.09797 0.155548 0.821096 0.432425C0.54422 0.709301 0.388672 1.08483 0.388672 1.47639V18.5236C0.388672 18.9152 0.54422 19.2907 0.821096 19.5676C1.09797 19.8445 1.4735 20 1.86506 20H18.9123C19.3038 20 19.6794 19.8445 19.9562 19.5676C20.2331 19.2907 20.3887 18.9152 20.3887 18.5236V1.47639C20.3887 1.08483 20.2331 0.709301 19.9562 0.432425C19.6794 0.155548 19.3038 0 18.9123 0ZM6.34978 17.0375H3.34284V7.48611H6.34978V17.0375ZM4.84423 6.1625C4.50314 6.16058 4.17027 6.05766 3.88762 5.86674C3.60497 5.67582 3.38521 5.40544 3.25607 5.08974C3.12693 4.77404 3.09421 4.42716 3.16203 4.09288C3.22985 3.7586 3.39517 3.4519 3.63713 3.21148C3.8791 2.97107 4.18685 2.80772 4.52156 2.74205C4.85627 2.67638 5.20293 2.71133 5.5178 2.84249C5.83266 2.97365 6.10162 3.19514 6.29073 3.47901C6.47983 3.76288 6.58061 4.09641 6.58034 4.4375C6.58356 4.66586 6.54076 4.89253 6.45452 5.104C6.36827 5.31547 6.24032 5.50742 6.07831 5.66839C5.91631 5.82936 5.72355 5.95607 5.51153 6.04096C5.2995 6.12585 5.07256 6.16718 4.84423 6.1625ZM17.4331 17.0458H14.4276V11.8278C14.4276 10.2889 13.7734 9.81389 12.929 9.81389C12.0373 9.81389 11.1623 10.4861 11.1623 11.8667V17.0458H8.15534V7.49306H11.047V8.81667H11.0859C11.3762 8.22917 12.3928 7.225 13.9442 7.225C15.622 7.225 17.4345 8.22083 17.4345 11.1375L17.4331 17.0458Z" fill="white"/>
</svg>
