<svg width="74" height="74" viewBox="0 0 74 74" fill="none" xmlns="http://www.w3.org/2000/svg">
<circle cx="37.3376" cy="36.8727" r="35.4009" stroke="#F2F1ED" stroke-width="2.18975"/>
<path d="M41.7747 52.0226L41.7922 52.0328C43.3426 53.0198 45.1832 53.4486 47.0102 53.2482C48.8371 53.0479 50.541 52.2304 51.8406 50.9308L52.9704 49.801C53.475 49.2957 53.7584 48.6109 53.7584 47.8968C53.7584 47.1828 53.475 46.4979 52.9704 45.9927L48.2104 41.2357C47.7052 40.7311 47.0203 40.4476 46.3063 40.4476C45.5922 40.4476 44.9074 40.7311 44.4021 41.2357C44.1523 41.4858 43.8556 41.6843 43.529 41.8197C43.2024 41.9551 42.8523 42.0248 42.4987 42.0248C42.1452 42.0248 41.7951 41.9551 41.4685 41.8197C41.1419 41.6843 40.8452 41.4858 40.5953 41.2357L32.9788 33.6176C32.4742 33.1124 32.1908 32.4276 32.1908 31.7135C32.1908 30.9995 32.4742 30.3146 32.9788 29.8094C33.2289 29.5595 33.4274 29.2628 33.5628 28.9362C33.6982 28.6096 33.7679 28.2595 33.7679 27.906C33.7679 27.5524 33.6982 27.2023 33.5628 26.8757C33.4274 26.5491 33.2289 26.2524 32.9788 26.0026L28.2203 21.2382C27.715 20.7336 27.0302 20.4502 26.3161 20.4502C25.6021 20.4502 24.9172 20.7336 24.412 21.2382L23.2822 22.368C21.9829 23.6677 21.1654 25.3715 20.9648 27.1983C20.7642 29.0251 21.1924 30.8657 22.1787 32.4163L22.1904 32.4339C27.4064 40.1552 34.0545 46.8049 41.7747 52.0226V52.0226Z" stroke="#F2F1ED" stroke-width="2.18975" stroke-linecap="round" stroke-linejoin="round"/>
</svg>
