<svg width="18" height="19" viewBox="0 0 18 19" fill="none" xmlns="http://www.w3.org/2000/svg">
<path d="M9.53033 0.71967C9.23744 0.426777 8.76256 0.426777 8.46967 0.71967L3.6967 5.49264C3.40381 5.78553 3.40381 6.26041 3.6967 6.5533C3.98959 6.84619 4.46447 6.84619 4.75736 6.5533L8.25 3.06066V13.25C8.25 13.6642 8.58579 14 9 14C9.41421 14 9.75 13.6642 9.75 13.25V3.06066L13.2426 6.5533C13.5355 6.84619 14.0104 6.84619 14.3033 6.5533C14.5962 6.26041 14.5962 5.78553 14.3033 5.49264L9.53033 0.71967Z" fill="white"/>
<path d="M2.25 13.25C2.25 12.8358 1.91421 12.5 1.5 12.5C1.08579 12.5 0.75 12.8358 0.75 13.25V15.5C0.75 17.1569 2.09315 18.5 3.75 18.5H14.25C15.9069 18.5 17.25 17.1569 17.25 15.5V13.25C17.25 12.8358 16.9142 12.5 16.5 12.5C16.0858 12.5 15.75 12.8358 15.75 13.25V15.5C15.75 16.3284 15.0784 17 14.25 17H3.75C2.92157 17 2.25 16.3284 2.25 15.5V13.25Z" fill="white"/>
</svg>
